<svg xmlns="http://www.w3.org/2000/svg">
    <symbol version="1.1" id="calendar" xmlns="http://www.w3.org/2000/svg" x="0" y="0" viewBox="0 0 26.6 26.8" xml:space="preserve"><g id="XMLID_9_"><path id="XMLID_124_" d="M24 3.5h-4v1.6c0 .9-.8 1.6-1.7 1.6-1 0-1.8-.7-1.8-1.6V3.5h-6.4v1.6c0 .9-.8 1.6-1.7 1.6-1 0-1.8-.7-1.8-1.6V3.5h-4c-1.1 0-2 .9-2 2v18.6c0 1.1.9 2 2 2H24c1.1 0 2-.9 2-2V5.5c0-1.1-.9-2-2-2zm.4 20.6c0 .2-.2.4-.4.4H2.6c-.2 0-.4-.2-.4-.4V10.4h22.2v13.7z"/><path id="XMLID_101_" d="M8.4.6c-.8 0-1.3.5-1.3 1.1V5.1c0 .6.6 1.1 1.3 1.1.7 0 1.3-.5 1.3-1.1V1.7c0-.6-.6-1.1-1.3-1.1z"/><path id="XMLID_100_" d="M18.3.6c-.8 0-1.3.5-1.3 1.1V5.1c0 .6.6 1.1 1.3 1.1.7 0 1.3-.5 1.3-1.1V1.7c0-.6-.6-1.1-1.3-1.1z"/><path id="XMLID_99_" d="M9.6 15.1l-2.4 2.4 4.6 4.5 7.6-7.6-1.7-1.8-5.9 4.8z"/></g></symbol>
    <symbol id="check" xmlns="http://www.w3.org/2000/svg" viewBox="0 0 40.7 31.7"><path d="M8.2 8.5L.4 16.4l14.8 14.8 25.1-25L34.6.3l-19.2 16z"/></symbol>
    <symbol id="lapiz" xmlns="http://www.w3.org/2000/svg" viewBox="0 0 38.3 37.7"><path d="M36.7 7.1L31 1.4C29.6 0 27.3 0 26 1.3l-21 21-.4.4L1 37.2l14.4-3.6 1.3-1.4 20-20c1.4-1.4 1.4-3.7 0-5.1zm-30.6 17L14 32l-7.4 1.9-2.3-2.4 1.8-7.4zm9.3 3.1l-4.5-4.5 15-15 4.5 4.5-15 15z"/></symbol>
    <symbol id="x" xmlns="http://www.w3.org/2000/svg" viewBox="0 0 32.7 32.7"><path d="M24.8.7l-8.4 8.4L7.9.7.7 7.9l8.4 8.5-8.4 8.4 7.2 7.3 8.5-8.5 8.4 8.5 7.3-7.3-8.5-8.4 8.5-8.5z"/></symbol>
    <symbol id="task" version="1.1" xmlns="http://www.w3.org/2000/svg" x="0" y="0" viewBox="0 0 45.2 45.4" xml:space="preserve"><g id="XMLID_10_"><path id="XMLID_16_" d="M22.6 21.8l-5.4 5.4 10.2 10.3 17.3-17.3-3.9-4.1-13.2 11z"/><path id="XMLID_15_" d="M35.2 41.9H3.4V6h3.8v1.4c0 .8.6 1.4 1.4 1.4h.3c.8 0 1.4-.6 1.4-1.4V6h4v1.4c0 .8.6 1.4 1.4 1.4h.3c.8 0 1.4-.6 1.4-1.4V6h4v1.4c0 .8.6 1.4 1.4 1.4h.3c.8 0 1.4-.6 1.4-1.4V6h4v1.4c0 .8.6 1.4 1.4 1.4h.3c.8 0 1.4-.6 1.4-1.4V6h.8L35 8.6v7.7l2.8-2.3V7.4l-4.3-4.2h-2V1.9c0-.8-.6-1.4-1.4-1.4H30c-.8 0-1.4.6-1.4 1.4v1.4h-4V1.9c0-.8-.6-1.4-1.4-1.4h-.3c-.8 0-1.4.6-1.4 1.4v1.4h-4V1.9c0-.8-.6-1.4-1.4-1.4h-.3c-.8 0-1.4.6-1.4 1.4v1.4h-4V1.9c0-.8-.6-1.4-1.4-1.4h-.4c-.8 0-1.4.6-1.4 1.4v1.4H.6v41.4h37.3V31.9l-2.8 2.8v7.2z"/></g></symbol>
    <symbol id="volver" xmlns="http://www.w3.org/2000/svg" viewBox="0 0 50 50"><path d="M25.2 42.2c-9.4 0-17-7.6-17-17s7.6-17 17-17c4 0 7.7 1.4 10.6 3.8l-8.4 7.3 22.2 3.3V.1l-7.8 6.7C37.4 2.8 31.6.4 25.2.4 11.5.4.4 11.5.4 25.2S11.5 50 25.2 50c10.7 0 19.9-6.8 23.3-16.4l-7.9-1.2c-2.8 5.8-8.6 9.8-15.4 9.8z"/></symbol>
</svg>