<?xml version="1.0" encoding="utf-8"?>
<!-- Generator: Adobe Illustrator 19.0.0, SVG Export Plug-In . SVG Version: 6.00 Build 0)  -->
<svg version="1.1" id="Capa_1" xmlns="http://www.w3.org/2000/svg" xmlns:xlink="http://www.w3.org/1999/xlink" x="0px" y="0px"
	 viewBox="0 0 50 50" style="enable-background:new 0 0 50 50;" xml:space="preserve">
<path id="XMLID_85_" d="M25.2,42.2c-9.4,0-17-7.6-17-17c0-9.4,7.6-17,17-17c4,0,7.7,1.4,10.6,3.8l-8.4,7.3l22.2,3.3l0-22.5l-7.8,6.7
	c-4.4-4-10.2-6.4-16.6-6.4C11.5,0.4,0.4,11.5,0.4,25.2S11.5,50,25.2,50c10.7,0,19.9-6.8,23.3-16.4l-7.9-1.2
	C37.8,38.2,32,42.2,25.2,42.2z"/>
</svg>
